<svg xmlns="http://www.w3.org/2000/svg" version="1.1" xmlns:xlink="http://www.w3.org/1999/xlink" xmlns:svgjs="http://svgjs.dev/svgjs" width="1000" height="151" viewBox="0 0 1000 151"><g transform="matrix(1,0,0,1,-0.6060606060606233,-0.4309346024528651)"><svg viewBox="0 0 396 60" data-background-color="#ffffff" preserveAspectRatio="xMidYMid meet" height="151" width="1000" xmlns="http://www.w3.org/2000/svg" xmlns:xlink="http://www.w3.org/1999/xlink"><g id="tight-bounds" transform="matrix(1,0,0,1,0.2400000000000091,0.1712322923653744)"><svg viewBox="0 0 395.52 59.65753541526927" height="59.65753541526927" width="395.52"><g><svg viewBox="0 0 517.3363993400407 78.03148909090909" height="59.65753541526927" width="395.52"><g transform="matrix(1,0,0,1,121.8163993400407,1.3739263636363717)"><svg viewBox="0 0 395.52 75.28363636363635" height="75.28363636363635" width="395.52"><g><svg viewBox="0 0 395.52 75.28363636363635" height="75.28363636363635" width="395.52"><g><svg viewBox="0 0 395.52 75.28363636363635" height="75.28363636363635" width="395.52"><g transform="matrix(1,0,0,1,0,0)"><svg width="395.52" viewBox="3.7 -36.25 193.59 36.85" height="75.28363636363635" data-palette-color="#65c3c8"><path d="M36.35-23.85Q36.35-20.7 34.65-18.15 32.95-15.6 29.7-14.4L29.7-14.4 37.35 0 24.95 0 18.85-12.55 14.75-12.55 14.75 0 3.7 0 3.7-34.4 24.75-34.4Q28.45-34.4 31.08-32.98 33.7-31.55 35.02-29.13 36.35-26.7 36.35-23.85L36.35-23.85ZM25.1-23.4Q25.1-24.75 24.2-25.65 23.3-26.55 22-26.55L22-26.55 14.75-26.55 14.75-20.2 22-20.2Q23.3-20.2 24.2-21.13 25.1-22.05 25.1-23.4L25.1-23.4ZM54.3-27Q61.55-27 65.37-23.6 69.2-20.2 69.2-13.2L69.2-13.2 69.2-11.5 49.4-11.5Q49.4-8.65 50.67-7.2 51.95-5.75 54.7-5.75L54.7-5.75Q57.2-5.75 58.37-6.8 59.55-7.85 59.55-9.6L59.55-9.6 69.2-9.6Q69.2-4.8 65.55-2.1 61.9 0.6 54.9 0.6L54.9 0.6Q47.55 0.6 43.5-2.83 39.45-6.25 39.45-13.2L39.45-13.2Q39.45-20 43.4-23.5 47.35-27 54.3-27L54.3-27ZM54.7-20.65Q50-20.65 49.45-16.2L49.45-16.2 59.15-16.2Q59.15-18.25 57.97-19.45 56.8-20.65 54.7-20.65L54.7-20.65ZM90.15 0L79.7 0 69.7-26.4 80.4-26.4 85.25-9.95 85.6-9.95 90.45-26.4 100.25-26.4 90.15 0ZM113.54-29.5L103.59-29.5 103.59-36.25 113.54-36.25 113.54-29.5ZM113.54 0L103.59 0 103.59-26.4 113.54-26.4 113.54 0ZM147.19 0L139.04 0 138.39-4Q136.84-1.85 134.32-0.63 131.79 0.6 128.99 0.6L128.99 0.6Q124.39 0.6 122.09-1.95 119.79-4.5 119.79-9.3L119.79-9.3 119.79-26.4 129.74-26.4 129.74-10.5Q129.74-8.8 130.62-7.78 131.49-6.75 133.09-6.75L133.09-6.75Q134.94-6.75 136.09-7.95 137.24-9.15 137.24-10.9L137.24-10.9 137.24-26.4 147.19-26.4 147.19 0ZM188.29-27Q192.79-27 195.04-24.43 197.29-21.85 197.29-17.1L197.29-17.1 197.29 0 187.34 0 187.34-15.9Q187.34-17.6 186.51-18.63 185.69-19.65 184.19-19.65L184.19-19.65Q182.44-19.65 181.34-18.45 180.24-17.25 180.24-15.5L180.24-15.5 180.24 0 170.29 0 170.29-15.9Q170.29-17.6 169.46-18.63 168.64-19.65 167.14-19.65L167.14-19.65Q165.39-19.65 164.29-18.45 163.19-17.25 163.19-15.5L163.19-15.5 163.19 0 153.24 0 153.24-26.4 161.39-26.4 162.04-22.45Q163.54-24.55 166.01-25.78 168.49-27 171.24-27L171.24-27Q177.19-27 179.24-22.45L179.24-22.45Q180.79-24.55 183.21-25.78 185.64-27 188.29-27L188.29-27Z" opacity="1" transform="matrix(1,0,0,1,0,0)" fill="#65c3c8" class="undefined-text-0" data-fill-palette-color="primary" id="text-0"></path></svg></g></svg></g></svg></g></svg></g><g><svg viewBox="0 0 104.04373960185889 78.03148909090909" height="78.03148909090909" width="104.04373960185889"><g><svg xmlns="http://www.w3.org/2000/svg" xmlns:xlink="http://www.w3.org/1999/xlink" version="1.1" x="0" y="0" viewBox="0.479 17.36 98.855 74.14" enable-background="new 0 0 100 100" xml:space="preserve" height="78.03148909090909" width="104.04373960185889" class="icon-icon-0" data-fill-palette-color="accent" id="icon-0"><path fill-rule="evenodd" clip-rule="evenodd" d="M0.479 91.5l32.893-26.324L66.547 91.5l32.787-26.324V17.36L66.547 43.107 33.372 17.36 0.479 43.107V91.5z" fill="#65c3c8" data-fill-palette-color="accent"></path></svg></g></svg></g></svg></g><defs></defs></svg><rect width="395.52" height="59.65753541526927" fill="none" stroke="none" visibility="hidden"></rect></g></svg></g></svg>